<?xml version="1.0" standalone="no"?>
<!DOCTYPE svg PUBLIC "-//W3C//DTD SVG 20010904//EN"
 "http://www.w3.org/TR/2001/REC-SVG-20010904/DTD/svg10.dtd">
<svg version="1.0" xmlns="http://www.w3.org/2000/svg"
 width="1223.000000pt" height="1223.000000pt" viewBox="0 0 1223.000000 1223.000000"
 preserveAspectRatio="xMidYMid meet">
<metadata>
Created by potrace 1.14, written by Peter Selinger 2001-2017
</metadata>
<g transform="translate(0.000000,1223.000000) scale(0.100000,-0.100000)"
fill="#000000" stroke="none">
<path d="M4040 12214 c-129 -33 -264 -123 -345 -229 -46 -61 -108 -191 -126
-265 -14 -58 -18 -266 -7 -313 56 -232 220 -417 432 -486 69 -23 100 -29 246
-46 61 -7 110 -14 140 -20 14 -2 36 -7 50 -10 14 -2 39 -7 56 -10 41 -6 270
-73 292 -85 16 -8 37 -15 54 -19 4 -1 62 -29 128 -62 162 -81 291 -173 408
-289 120 -118 208 -241 277 -385 56 -117 119 -284 107 -286 -4 0 -16 -2 -27
-4 -11 -2 -42 -7 -70 -10 -27 -3 -63 -8 -78 -11 -16 -3 -38 -7 -50 -8 -12 -2
-35 -6 -52 -9 -16 -4 -43 -9 -60 -12 -31 -5 -208 -42 -235 -49 -8 -3 -35 -9
-60 -15 -25 -5 -113 -30 -196 -55 -597 -178 -1185 -493 -1664 -889 -248 -206
-506 -467 -706 -717 -50 -62 -219 -294 -254 -350 -6 -8 -32 -49 -58 -90 -253
-393 -469 -898 -591 -1380 -33 -128 -85 -384 -96 -465 -7 -55 -17 -142 -30
-252 -3 -28 -2 -54 3 -56 4 -3 7 -21 5 -39 -2 -18 -6 -139 -9 -268 -3 -129 -7
-237 -10 -239 -3 -3 -100 -49 -217 -103 l-212 -97 1 -138 c2 -154 11 -287 29
-433 13 -101 17 -132 31 -215 25 -161 52 -288 96 -455 29 -114 137 -451 159
-500 7 -14 15 -34 19 -45 91 -242 286 -623 438 -855 51 -78 181 -264 209 -300
176 -225 343 -413 516 -579 l46 -44 83 38 c46 21 130 60 187 86 57 27 105 49
106 49 2 0 52 23 112 50 59 28 121 56 138 64 29 13 32 11 105 -44 108 -82 250
-178 383 -258 l115 -69 -61 -33 c-119 -64 -142 -78 -142 -88 0 -35 476 -303
741 -418 437 -189 936 -326 1344 -369 30 -3 71 -7 90 -10 122 -14 246 -19 480
-19 261 -1 420 7 585 29 28 3 68 8 90 11 90 11 235 38 428 79 10 2 27 7 37 10
10 3 27 8 39 10 130 25 586 178 673 225 10 6 23 10 29 10 25 0 441 212 569
290 110 66 340 217 384 251 369 286 578 481 816 758 30 35 60 69 66 75 74 77
424 584 424 614 0 3 6 13 14 21 7 9 24 36 37 61 13 25 30 53 38 63 8 9 11 17
8 17 -4 0 8 24 25 53 17 28 43 79 58 112 72 156 102 222 110 240 28 59 93 238
135 365 26 80 49 152 52 160 4 8 8 24 10 34 2 11 10 42 18 70 14 49 61 243 71
296 2 14 9 48 14 75 6 28 12 70 15 94 3 24 7 47 9 50 3 3 7 35 11 71 3 36 8
76 10 90 4 26 15 121 21 180 9 97 16 530 8 530 -5 0 -22 -8 -39 -18 -16 -10
-70 -40 -120 -66 -49 -27 -105 -57 -122 -68 -32 -19 -33 -19 -34 -1 -1 10 -2
29 -4 43 -1 14 -5 72 -9 130 -3 58 -8 123 -11 145 -3 22 -7 60 -10 85 -3 25
-8 56 -10 70 -71 476 -176 859 -347 1255 -153 357 -389 812 -494 952 -13 17
-24 36 -24 42 0 6 -4 11 -10 11 -5 0 -10 5 -10 10 0 6 -5 16 -10 23 -6 7 -46
59 -88 117 -90 124 -132 177 -221 280 -94 109 -113 129 -248 264 l-122 123 52
18 c29 10 70 26 92 35 22 9 78 32 124 50 l84 33 -29 26 c-16 14 -56 49 -88 76
-33 28 -64 55 -70 60 -6 6 -42 34 -79 64 -47 37 -66 58 -62 70 23 72 26 201 6
253 -14 36 -68 96 -105 115 -86 45 -156 190 -115 239 11 14 66 32 124 41 71
11 254 62 297 83 101 47 149 124 156 246 4 72 1 89 -21 137 -14 31 -39 65 -60
81 -66 50 -236 100 -362 106 -27 1 -61 3 -75 5 -14 2 -34 4 -46 4 -34 2 -64
38 -64 76 0 90 77 183 179 216 90 29 111 41 155 86 63 63 91 134 91 229 0 71
-3 85 -28 122 -56 85 -199 151 -339 157 -83 4 -131 -6 -288 -63 -86 -31 -177
-59 -221 -67 -13 -3 -60 -12 -104 -21 -102 -21 -162 -15 -192 20 -21 25 -23
34 -21 159 2 122 1 136 -21 177 -96 181 -330 232 -480 104 -87 -75 -143 -169
-186 -309 -52 -175 -138 -350 -184 -374 -50 -27 -104 -14 -175 42 -51 41 -87
98 -131 213 -28 73 -44 100 -71 121 -48 36 -114 41 -201 15 -64 -20 -196 -91
-252 -137 -40 -33 -130 -124 -147 -151 -20 -30 -30 -30 -37 -1 -21 89 -141
348 -231 496 -105 172 -174 260 -331 416 -156 156 -305 265 -503 364 -95 48
-267 119 -307 127 -12 2 -48 13 -80 24 -33 11 -61 20 -63 20 -1 -1 -15 1 -30
4 -135 30 -206 43 -282 51 -30 4 -66 8 -80 11 -79 12 -289 11 -340 -2z"/>
</g>
</svg>
